Coordinates
version=1
nRows=14
nColumns=24
inDegrees=yes

Units are S.I. units (second, meters, Newtons, ...)
Angles are in degrees.

endheader
time	pelvis_tilt	pelvis_list	pelvis_rotation	pelvis_tx	pelvis_ty	pelvis_tz	hip_flexion_r	hip_adduction_r	hip_rotation_r	knee_angle_r	ankle_angle_r	subtalar_angle_r	mtp_angle_r	hip_flexion_l	hip_adduction_l	hip_rotation_l	knee_angle_l	ankle_angle_l	subtalar_angle_l	mtp_angle_l	lumbar_extension	lumbar_bending	lumbar_rotation
      1.83000000	     19.61946835	     -5.06034513	      3.82294058	     -0.02900673	      0.95201924	      0.24503799	    -28.01036449	      9.95996198	      1.44236258	     -5.66328157	     23.05872295	      2.18564695	     16.17260244	      9.09935905	     -6.02506487	     -8.30740600	    -34.38573172	     19.09806676	      3.75529379	     39.39688370	    -37.72185689	      8.42095821	      4.47570864
      1.83500000	     19.91026556	     -4.86693098	      3.57993753	     -0.02239958	      0.95178087	      0.24523356	    -28.91556055	      9.65285334	      1.51165391	     -5.48340054	     23.24608056	      2.44128274	     15.94918669	      8.40612417	     -5.72628934	     -8.92038666	    -31.79327607	     18.52863420	      4.14999564	     39.35431870	    -38.04170405	      8.07840658	      4.60254199
      1.84000000	     20.19796085	     -4.71420341	      3.22026525	     -0.01579181	      0.95148348	      0.24545638	    -29.79266624	      9.31037289	      1.73703692	     -5.37086528	     23.53763621	      2.75850122	     15.75211833	      7.67941341	     -5.46990449	     -9.64165753	    -29.17662187	     17.88575051	      4.60828439	     39.34730015	    -38.36466504	      7.69533694	      4.88597723
      1.84500000	     20.59566358	     -4.43915652	      2.89362379	     -0.00899111	      0.95136118	      0.24547281	    -30.81914993	      8.84232894	      1.64612179	     -5.21778415	     23.86837177	      3.33408966	     15.58652423	      6.74377664	     -5.03009621	    -10.25561769	    -26.45767780	     17.12405294	      5.04332302	     39.21525672	    -38.77594514	      7.24281054	      5.00990181
      1.85000000	     20.84972409	     -4.28496951	      2.68657717	     -0.00222685	      0.95083356	      0.24548855	    -31.71222230	      8.56560027	      1.74273341	     -4.97699647	     24.12253847	      3.60106184	     15.47136377	      6.07331014	     -4.72440023	    -10.82996070	    -23.92762605	     16.37680028	      5.69374872	     39.18974720	    -39.03432414	      6.95482358	      5.11250025
      1.85500000	     21.06493015	     -4.17019789	      2.54808550	      0.00441995	      0.95017880	      0.24538843	    -32.50883420	      8.35957763	      1.73331627	     -4.82665616	     24.42443831	      3.85530509	     15.45998990	      5.49169137	     -4.43824898	    -11.25188200	    -21.47979490	     15.56570474	      6.27744297	     39.19175858	    -39.24342282	      6.74195145	      5.23387749
      1.86000000	     21.16343097	     -4.14034625	      2.42951863	      0.01110430	      0.94929886	      0.24525912	    -33.12652827	      8.23942815	      1.72475052	     -4.76993681	     24.67158982	      4.08410461	     15.48579255	      5.05454780	     -4.23243558	    -11.62852073	    -19.11790713	     14.91464799	      6.88793683	     39.24756354	    -39.32536839	      6.61650207	      5.39588615
      1.86500000	     21.19095310	     -4.11493733	      2.35125417	      0.01782678	      0.94827361	      0.24493418	    -33.69695333	      8.12717420	      1.75579775	     -4.65436323	     24.81346441	      4.31655178	     15.35065618	      4.72108431	     -4.00519953	    -11.86822655	    -16.88195467	     14.30078841	      7.44689197	     39.21594981	    -39.32929691	      6.53750591	      5.50233229
      1.87000000	     21.20700876	     -4.19486197	      2.24161656	      0.02431596	      0.94723360	      0.24468251	    -34.14417634	      8.10333324	      1.75848686	     -4.72064604	     25.02650419	      4.60484638	     15.21954473	      4.43464977	     -3.90193342	    -12.13053622	    -14.76573815	     13.77071421	      8.05132904	     39.23502820	    -39.35746430	      6.53986256	      5.73414494
      1.87500000	     21.21570918	     -4.24577893	      2.16586290	      0.03084654	      0.94607212	      0.24451641	    -34.61068726	      8.08214352	      1.82438602	     -4.74607464	     25.31392374	      4.91511971	     15.15292979	      4.16327919	     -3.76975004	    -12.32244361	    -12.76459504	     13.28729048	      8.57998601	     39.37785213	    -39.35197457	      6.52027725	      5.92582261
      1.88000000	     21.27718100	     -4.29286898	      2.27661202	      0.03731772	      0.94497630	      0.24389607	    -35.09553653	      8.14855865	      1.58703752	     -4.82116491	     25.56015355	      5.40075683	     15.08851855	      3.85977509	     -3.59201399	    -12.29240531	    -10.84175323	     12.84842251	      8.91776887	     39.62416231	    -39.41061277	      6.62331988	      6.01004541
      1.88500000	     21.20309184	     -4.39583915	      2.21267667	      0.04397450	      0.94371627	      0.24369413	    -35.39768262	      8.19573539	      1.44093895	     -5.00313785	     25.84163857	      5.74100042	     15.12428503	      3.72055513	     -3.52474596	    -12.61309448	     -9.15702805	     12.62643466	      9.54964889	     39.75986325	    -39.32455227	      6.65091700	      6.14174049
      1.89000000	     21.03345741	     -4.52264427	      2.33326049	      0.05058305	      0.94224362	      0.24311738	    -35.62882391	      8.35162320	      1.41828395	     -5.07350386	     26.01469299	      5.68615271	     15.16840016	      3.79410177	     -3.45769618	    -12.59498468	     -7.75248787	     12.47195982	     10.00561597	     39.77721599	    -39.10659379	      6.81345479	      6.17027561
      1.89500000	     20.94367501	     -4.60844357	      2.49616886	      0.05734245	      0.94081434	      0.24249284	    -35.99044832	      8.47999477	      1.27512614	     -5.07587645	     26.08829873	      5.85949914	     15.28187382	      3.82181273	     -3.37109635	    -12.66719167	     -6.59189058	     12.50062864	     10.72212101	     39.84625706	    -38.96615207	      6.98091180	      6.15089099
